<svg width="177" height="27" fill="none" xmlns="http://www.w3.org/2000/svg"><path fill-rule="evenodd" clip-rule="evenodd" d="M18.86 22.26L10.7.46H6.02L4.52 4.5l6.54 17.77c.4 1.1.27 2.18-2.26 2.18v1.48h12.76v-1.48c-1.07 0-2.1-.56-2.7-2.18zm16.41 2.1h.85v1.56h-12.9v-1.34c.44 0 .88-.1 1.27-.28.31-.18.56-.44.72-.74.15-.31.21-.65.17-1V11.69c0-1.23-.19-1.6-1.81-1.55-.3 0-.6 0-.9.03V8.9c1.79-.61 5.26-1.55 7.5-1.55 2.09 0 2.59.65 2.59 2.3v.98c1.77-2.16 3.67-3.28 5.79-3.28 1.97 0 3.51 1.15 3.51 3.17a2.9 2.9 0 01-.86 2.28 3.15 3.15 0 01-2.34.93c-2.47 0-2.24-2.52-4.44-2.52-.59.02-1.16.18-1.66.47v10.89c0 1.04.85 1.8 2.51 1.8zm9.6-16.47h16.5l.65 1L51.9 23.94h3.2a6.1 6.1 0 003.52-1.18 5.7 5.7 0 002.09-2.96l1.31.14-.85 5.99H43.72l-.58-.94 10.12-15.1H50.4c-3.2 0-4.56 1.9-5.37 3.89l-1.42-.18 1.27-5.7zm39.7 16.37c.23.02.46.02.7 0l.03.83a12.52 12.52 0 01-5.64 1.37c-3.59 0-4.36-1.48-4.36-3.57v-.4c-1.27 2.02-3.24 3.93-6.33 3.93-2.94 0-4.64-1.73-4.64-4.29 0-3.42 3.02-4.58 6.96-5.33l4.01-.76v-.65c0-2.13-.85-3.53-3.75-3.53-2.18.08-4.36.38-6.48.9V10.2c3.28-1.66 6.99-2.85 10.11-2.85 5.49 0 7.5 2.81 7.5 7.61v7.07c0 1.76.42 2.23 1.89 2.23zm-9.27-2.63v-4.15l-2 .47c-1.36.33-2.36.87-2.36 2.16 0 1.41 1.2 1.88 2.35 1.88a6.56 6.56 0 002.01-.36zm22.07 2.63c.38.2.8.3 1.24.32v1.34H86.9v-1.34c.44 0 .87-.1 1.27-.28.3-.18.55-.44.71-.74.16-.31.22-.65.18-1V11.69c0-1.2-.2-1.55-1.62-1.55-.31 0-.66 0-1.08.03V8.9c1.77-.61 5.25-1.55 7.49-1.55 2.08 0 2.58.65 2.58 2.3V11c2.05-2.1 4.6-3.64 7.53-3.64 3.29 0 5.02 1.26 5.64 3.82 2.12-2.16 4.68-3.82 7.72-3.82 4.3 0 5.95 2.13 5.95 6.6v8.62a1.74 1.74 0 00.92 1.69 3 3 0 001.24.32v1.34h-11.7v-1.34c.44 0 .88-.1 1.28-.28.3-.18.55-.44.7-.74.16-.31.22-.65.18-1v-6.63c0-2.77-.46-4.68-3.43-4.68a6.49 6.49 0 00-2.74.54c.13.71.19 1.43.2 2.16v8.62c-.04.34.03.67.2.97.16.3.41.55.72.72.38.2.8.3 1.23.33v1.33h-11.7V24.6c.44-.01.88-.11 1.28-.3.3-.17.55-.42.7-.73.17-.3.23-.65.19-1v-6.63c0-2.77-.47-4.68-3.45-4.68a6.7 6.7 0 00-2.66.5v10.82a1.78 1.78 0 00.93 1.69zm50.25 0c.23.02.46.02.7 0l.03.83a12.52 12.52 0 01-5.63 1.37c-3.6 0-4.37-1.48-4.37-3.57v-.4c-1.27 2.02-3.25 3.93-6.33 3.93-2.93 0-4.64-1.73-4.64-4.29 0-3.42 3.02-4.58 6.96-5.33l4.01-.76v-.65c0-2.13-.85-3.53-3.74-3.53-2.2.08-4.37.38-6.5.9V10.2c3.29-1.66 7-2.85 10.13-2.85 5.48 0 7.49 2.81 7.49 7.61v7.07c0 1.76.43 2.23 1.9 2.23zm-9.27-2.63v-4.15l-2 .47c-1.36.33-2.36.87-2.36 2.16 0 1.41 1.2 1.88 2.35 1.88a6.56 6.56 0 002.01-.36zm11.77 3.57L150 20l1.59-.18c1.38 2.82 3.35 4.7 6.02 4.7 1.85 0 2.9-1.01 2.9-2.2 0-1.27-1.28-1.81-2.9-2.2l-1.74-.44c-2.63-.65-5.56-2.38-5.56-5.7 0-3.93 4.02-6.63 9.5-6.63 2.2-.04 4.37.43 6.33 1.37l.39 4.62-1.85.1c-1.7-3.17-3.48-4.14-5.37-4.14-1.66 0-2.51.97-2.51 2.12 0 1.41 1.12 2.06 2.62 2.42l2.13.5c2.55.62 5.64 1.84 5.64 5.34 0 4.76-5.6 6.78-10.27 6.78a19.45 19.45 0 01-6.8-1.26zm22.98-5c-1.86 0-3.9-.86-3.9-3.28 0-2.41 2.04-3.31 3.9-3.31 1.8 0 3.9.9 3.9 3.31 0 2.42-2.1 3.28-3.9 3.28zm-169.46.38C1.78 20.58 0 19.72 0 17.3c0-2.41 1.78-3.32 3.64-3.32 1.81 0 3.65.9 3.65 3.32s-1.84 3.28-3.65 3.28z" fill="#BDBDBD"/></svg>