<svg width="187" height="38" fill="none" xmlns="http://www.w3.org/2000/svg"><path fill-rule="evenodd" clip-rule="evenodd" d="M67.13 6.68a17.05 17.05 0 00-11.96-4.96c-4.6 0-8.84 1.9-11.95 4.96a17.16 17.16 0 000 24.56 17.04 17.04 0 0011.96 4.96c4.6 0 8.84-1.9 11.95-4.96a17.17 17.17 0 000-24.56zm-11.96-5.5c5.23 0 9.9 2.03 13.23 5.3a17.45 17.45 0 010 24.96c-3.33 3.28-8 5.3-13.23 5.3-5.22 0-9.9-2.02-13.23-5.3a17.46 17.46 0 010-24.96c3.34-3.27 8-5.3 13.23-5.3zm0 16.36c.8 0 1.44.64 1.44 1.42a1.44 1.44 0 01-2.87 0c0-.78.64-1.42 1.43-1.42zm103.87 8.71h19.38L168.74 2.8l-9.7 23.46zm21.12 9.78h2.3l-3.81-9.23h-19.83L155 36.03h2.98v.54h-6.84v-.54h3.2l3.82-9.23h-2.35v-.55h2.57L169.04.46l14.69 35.57H187v.54h-6.84v-.54zm-59.4-21.3h2.38c.97 0 2.08 0 3.03-.55.52-.3 1-.74 1.45-1.27.5-.6.95-1.31 1.32-2.04.35-.7.62-1.4.83-2.08.22-.68.4-1.36.55-2l.05-.22c.3-1.2.56-2.25 1.12-3.07.3-.41.67-.77 1.09-1.06a5.71 5.71 0 011.56-.75c.55-.17 1.1-.25 1.65-.3.52-.03 1-.03 1.48-.03v.54c-.42 0-.84 0-1.22.03a4.48 4.48 0 00-2.28.78c-.37.25-.7.57-.96.94-.53.77-.79 1.8-1.08 2.98l-.05.2a31.3 31.3 0 01-.56 2.03c-.22.71-.5 1.43-.84 2.12-.37.74-.83 1.47-1.37 2.1a6.31 6.31 0 01-2.1 1.65h1.38c1.64 0 3.53 0 5.2 1.25a9.1 9.1 0 012.02 2.28 18.9 18.9 0 011.73 3.46c.44 1.15.79 2.33 1.07 3.5.3 1.18.51 2.3.71 3.35l.07.35c.37 1.97.7 3.69 1.39 4.98a6.64 6.64 0 002.66 2.67c.34.19.61.28.83.32.17.03.38.03.58.03v.54c-.35 0-.7 0-1.15-.08a4.57 4.57 0 01-1.37-.5 7.36 7.36 0 01-2.9-2.87c-.7-1.33-1.03-3.06-1.4-5.05l-.08-.35c-.2-1.07-.42-2.21-.7-3.34a28.2 28.2 0 00-1.07-3.47 18.53 18.53 0 00-1.7-3.4 8.5 8.5 0 00-1.9-2.16c-1.28-.97-2.73-.97-3.99-.97h-3.91v-.02c-.4.02-.77.02-1.14.02h-2.38v20.76h2.73v.54h-6.84v-.54h2.74V1.9h-2.74v-.55h6.84v.55h-2.73v12.83zm-16.6 21.3h2.3L92.74 2.79 79 36.03h2.98v.54h-6.83v-.54h3.2L93.05.46l14.69 35.57H111v.54h-6.84v-.54zM29.7 1.9v34.13h2.73v.54h-6.84v-.54h2.73V1.9H4.11v34.4H2.73V1.9H0v-.55h32.43v.55H29.7z" fill="#BDBDBD"/></svg>