<svg width="160" height="32" fill="none" xmlns="http://www.w3.org/2000/svg"><path d="M18.13 9.23l.4-.4c0-4.9-3.9-8.37-9-8.37C4.44.46.61 3.93.61 8.42c0 4.89 3.06 7.54 6.93 8.8 1.02.33 2.28.7 3.26.94 2 .5 4.28 1.68 4.28 4.53 0 2.65-1.84 4.49-5.3 4.49a5.38 5.38 0 01-5.5-5.71l-.4-.41L.2 22.28l-.2.41c.08 4.57 4.24 8.77 9.78 8.77 6.31 0 9.57-4.49 9.57-8.77 0-4.9-3.05-7.46-6.92-8.52l-3.26-.94c-3.18-.94-4.28-2.37-4.28-4.81 0-2.2 1.83-3.88 4.69-3.88 2.85 0 4.68 2.04 4.68 4.28l.4.41h3.47zm5.72-4.49l.4.41h6.6v25.3l.41.4h3.5l.42-.4V5.14h6.6l.4-.4V1.47l-.4-.4H24.26l-.41.4v3.26zm23.65 25.7l.4.41h3.46l.41-.4V17.58h.61l9.37 12.85.41.41h4.48v-.82l-9.4-12.48c4.51-.16 8.8-3.18 8.8-8.11 0-5.3-4.29-8.37-9.18-8.37H47.9l-.4.41v28.96zm4.27-16.72V5.15h5.3c2.44 0 4.68 1.43 4.68 4.29 0 2.85-2.24 4.28-4.68 4.28h-5.3zm18.96 16.72l.4.41h17.12l.4-.4v-3.27l-.4-.4H75.01V17.8h12.83l.41-.41v-3.26l-.4-.41H75V5.15h13.24l.4-.4V1.47l-.4-.4h-17.1l-.4.4v28.96zm23.24 0l.4.41h17.12l.4-.4v-3.27l-.4-.4H98.25V1.47l-.41-.4h-3.46l-.41.4v28.96zm37.09-29.37l-.4.41-9.18 11.83V1.48l-.36-.4h-3.5l-.42.4v28.96l.41.41h3.47l.4-.4V18.2l9.58 12.24.4.41h4.7l.2-.4-11.82-14.9 11.4-14.07-.2-.4h-4.68zm7.34 29.37l.2.41h3.88l.4-.4 1.76-6.94h9.13l1.75 6.93.4.41h3.88l.2-.4-8.15-28.97-.4-.4h-4.49l-.4.4-8.16 28.96zm10.8-24.06l3.47 13.05h-6.93l3.46-13.05z" fill="#BDBDBD"/></svg>